<svg width="21" height="21" viewBox="0 0 21 21" fill="none" xmlns="http://www.w3.org/2000/svg">
<g clip-path="url(#clip0_426_155)">
<path d="M19.9898 3.24927C19.5476 1.61127 16.2567 0 10.5 0C4.74337 0 1.4521 1.61127 1.01034 3.24927C0.978263 3.3054 0.95459 3.36687 0.95459 3.43636V3.62727V8.01818V8.20909V8.4V12.6V12.7909V12.9818V17.5636C0.95459 17.6255 0.971008 17.6839 0.999263 17.7358C1.45019 19.6048 5.48448 21 10.5 21C15.5042 21 19.532 19.6106 19.9978 17.7484C20.0283 17.6938 20.0455 17.6308 20.0455 17.5636V12.9818V12.7909V12.6V8.4V8.20909V8.01818V3.62727V3.43636C20.0455 3.36687 20.0218 3.3054 19.9898 3.24927ZM19.2517 12.9761C19.241 13.0223 19.2261 13.0681 19.2074 13.1147C19.1921 13.1525 19.1734 13.1903 19.1528 13.2281C19.1272 13.2751 19.0986 13.322 19.0646 13.369C19.0394 13.4045 19.0108 13.4396 18.981 13.4747C18.9386 13.5248 18.8936 13.5748 18.8424 13.6244C18.8115 13.6546 18.7775 13.6844 18.7431 13.7145C18.6805 13.7691 18.6152 13.8233 18.5423 13.8772C18.511 13.9005 18.4774 13.923 18.4442 13.9459C18.3579 14.0055 18.2678 14.0647 18.1689 14.1227C18.1429 14.1383 18.115 14.1532 18.0879 14.1685C17.9741 14.2327 17.8554 14.2964 17.7271 14.3583C17.7107 14.3663 17.6935 14.3739 17.6767 14.3816C17.5335 14.4491 17.3838 14.5156 17.2239 14.5797C17.2193 14.5816 17.2147 14.5832 17.2101 14.5851C16.343 14.9314 15.2338 15.2227 13.9414 15.4136C13.9349 15.4144 13.9284 15.4151 13.9219 15.4163C13.6707 15.4533 13.4129 15.4862 13.1483 15.5152C13.1052 15.5198 13.0598 15.5228 13.0162 15.5274C12.7852 15.5515 12.5516 15.5736 12.311 15.5912C12.201 15.5992 12.0857 15.603 11.9739 15.6099C11.7929 15.6206 11.6138 15.6324 11.4282 15.6389C11.1251 15.6484 10.8158 15.6545 10.5 15.6545C10.1843 15.6545 9.87501 15.6484 9.57146 15.6377C9.3859 15.6313 9.20683 15.619 9.02584 15.6087C8.91397 15.6022 8.79866 15.598 8.6887 15.59C8.44815 15.5725 8.21448 15.5503 7.98348 15.5263C7.93995 15.5217 7.89452 15.5186 7.85137 15.514C7.58677 15.485 7.32904 15.4518 7.07781 15.4151C7.07132 15.4144 7.06483 15.4136 7.05834 15.4125C5.76588 15.2216 4.6567 14.9302 3.78959 14.5839C3.78501 14.5824 3.78043 14.5805 3.77584 14.5786C3.61586 14.5144 3.46581 14.448 3.32301 14.3804C3.30659 14.3724 3.28903 14.3648 3.27261 14.3571C3.14432 14.2953 3.02557 14.2319 2.91179 14.1674C2.88506 14.1521 2.85681 14.1372 2.83084 14.1215C2.73195 14.0635 2.64184 14.0043 2.55555 13.9448C2.52272 13.9219 2.48874 13.8993 2.45743 13.876C2.3845 13.8222 2.31921 13.768 2.25659 13.7134C2.22261 13.6836 2.18824 13.6538 2.15732 13.6233C2.10615 13.5736 2.0611 13.524 2.01872 13.4736C1.98894 13.4385 1.9603 13.4033 1.9351 13.3678C1.9015 13.3209 1.87286 13.2739 1.8469 13.2269C1.82628 13.1891 1.80795 13.1513 1.7923 13.1135C1.77359 13.0673 1.7587 13.0211 1.74801 12.9749C1.73388 12.9142 1.71823 12.8524 1.71823 12.7909C1.71823 12.7478 1.72319 12.7046 1.73006 12.6619C1.73961 12.6042 1.73426 12.5465 1.71823 12.4919V9.65733C1.72892 9.66725 1.74228 9.6768 1.75335 9.68673C1.83659 9.76004 1.92135 9.83296 2.01681 9.90322C3.45512 10.991 6.33135 11.8364 10.5 11.8364C14.6512 11.8364 17.5202 10.9979 18.9646 9.91658C19.0799 9.83258 19.1837 9.74591 19.2815 9.65771L19.2819 9.65733V12.4919C19.2658 12.5465 19.2605 12.6042 19.27 12.6619C19.2773 12.7046 19.2819 12.7478 19.2819 12.7909C19.2819 12.8524 19.2662 12.9142 19.2517 12.9761ZM19.2819 5.07551V7.91013C19.2658 7.96473 19.2605 8.02238 19.27 8.08004C19.2773 8.1228 19.2819 8.16595 19.2819 8.20909C19.2819 8.27056 19.2662 8.33242 19.2517 8.39427C19.241 8.44047 19.2261 8.48629 19.2074 8.53287C19.1921 8.57067 19.1734 8.60847 19.1528 8.64627C19.1272 8.69324 19.0986 8.7402 19.0646 8.78716C19.0394 8.82267 19.0108 8.8578 18.981 8.89293C18.9386 8.94295 18.8936 8.99296 18.8424 9.0426C18.8115 9.07276 18.7775 9.10255 18.7431 9.13271C18.6805 9.18731 18.6152 9.24153 18.5423 9.29536C18.511 9.31865 18.4774 9.34118 18.4442 9.36409C18.3579 9.42365 18.2678 9.48284 18.1689 9.54087C18.1429 9.55653 18.115 9.57142 18.0879 9.58669C17.9741 9.65084 17.8554 9.7146 17.7271 9.77645C17.7107 9.78447 17.6935 9.79211 17.6767 9.79975C17.5335 9.86733 17.3838 9.93376 17.2239 9.99791C17.2193 9.99982 17.2147 10.0013 17.2101 10.0033C16.343 10.3496 15.2338 10.6409 13.9414 10.8318C13.9349 10.8326 13.9284 10.8333 13.9219 10.8345C13.6707 10.8715 13.4129 10.9043 13.1483 10.9334C13.1052 10.9379 13.0598 10.941 13.0162 10.9456C12.7852 10.9696 12.5516 10.9918 12.311 11.0093C12.201 11.0174 12.0857 11.0212 11.9739 11.0281C11.7929 11.0387 11.6138 11.0506 11.4282 11.0571C11.1251 11.0666 10.8158 11.0727 10.5 11.0727C10.1843 11.0727 9.87501 11.0666 9.57146 11.0559C9.3859 11.0494 9.20683 11.0372 9.02584 11.0269C8.91397 11.0204 8.79866 11.0162 8.6887 11.0082C8.44815 10.9906 8.21448 10.9685 7.98348 10.9444C7.93995 10.9399 7.89452 10.9368 7.85137 10.9322C7.58677 10.9032 7.32904 10.87 7.07781 10.8333C7.07132 10.8326 7.06483 10.8318 7.05834 10.8307C5.76588 10.6397 4.6567 10.3484 3.78959 10.0021C3.78501 10.0006 3.78043 9.99867 3.77584 9.99676C3.61586 9.93262 3.46581 9.86618 3.32301 9.7986C3.30659 9.79058 3.28903 9.78294 3.27261 9.77531C3.14432 9.71345 3.02557 9.65007 2.91179 9.58555C2.88506 9.57027 2.85681 9.55538 2.83084 9.53973C2.73195 9.48169 2.64184 9.42251 2.55555 9.36294C2.52272 9.34004 2.48874 9.31751 2.45743 9.29422C2.3845 9.24038 2.31921 9.18616 2.25659 9.13156C2.22261 9.10178 2.18824 9.072 2.15732 9.04145C2.10615 8.99182 2.0611 8.94218 2.01872 8.89178C1.98894 8.85665 1.9603 8.82153 1.9351 8.78602C1.9015 8.73905 1.87286 8.69209 1.8469 8.64513C1.82628 8.60733 1.80795 8.56953 1.7923 8.53173C1.77359 8.48553 1.7587 8.43933 1.74801 8.39313C1.73388 8.33242 1.71823 8.27056 1.71823 8.20909C1.71823 8.16595 1.72319 8.1228 1.73006 8.08004C1.73961 8.02238 1.73426 7.96473 1.71823 7.91013V5.07551C1.76404 5.11713 1.81635 5.15798 1.86599 5.19922C1.89348 5.22213 1.91906 5.24504 1.94808 5.26795C2.06263 5.35805 2.18634 5.44702 2.32035 5.53369C2.34823 5.55164 2.37954 5.5692 2.40855 5.58715C2.52081 5.65702 2.63955 5.72536 2.76441 5.79256C2.81061 5.81738 2.85681 5.84182 2.90454 5.86625C3.0439 5.93727 3.19014 6.00638 3.34401 6.0732C3.36921 6.08427 3.39212 6.09573 3.4177 6.10642C3.59677 6.1824 3.78692 6.25495 3.9847 6.3252C4.0393 6.34467 4.09657 6.363 4.1527 6.38209C4.31001 6.43516 4.47266 6.48595 4.64104 6.5352C4.70175 6.55276 4.76132 6.57109 4.82355 6.58789C5.04692 6.64975 5.27754 6.70855 5.51961 6.76276C5.55283 6.7704 5.58872 6.77651 5.62232 6.78376C5.83575 6.83035 6.05721 6.87349 6.28477 6.91396C6.3619 6.92771 6.44017 6.94069 6.51883 6.95367C6.73532 6.98918 6.9583 7.02164 7.18701 7.05142C7.24581 7.05905 7.30194 7.06784 7.3615 7.07509C7.64557 7.10945 7.93957 7.13885 8.24159 7.16405C8.31604 7.17016 8.39355 7.17475 8.46915 7.18009C8.71084 7.19765 8.95788 7.21216 9.21064 7.22362C9.30266 7.22782 9.3943 7.23202 9.48823 7.23545C9.81735 7.24653 10.1526 7.25455 10.5 7.25455C10.8475 7.25455 11.1827 7.24653 11.5119 7.23545C11.6054 7.23202 11.697 7.22782 11.7894 7.22362C12.0422 7.21216 12.2892 7.19765 12.5309 7.18009C12.6065 7.17436 12.6837 7.17016 12.7585 7.16405C13.0605 7.13924 13.3545 7.10945 13.6386 7.07509C13.6982 7.06784 13.7543 7.05905 13.8131 7.05142C14.0418 7.02164 14.2644 6.98918 14.4813 6.95367C14.5599 6.94069 14.6382 6.92771 14.7153 6.91396C14.9429 6.87349 15.1643 6.83035 15.3778 6.78376C15.4114 6.77651 15.4473 6.77002 15.4805 6.76276C15.7226 6.70855 15.9532 6.64936 16.1765 6.58789C16.2388 6.57071 16.2983 6.55276 16.359 6.5352C16.5274 6.48595 16.6901 6.43516 16.8474 6.38209C16.9035 6.363 16.9608 6.34467 17.0154 6.3252C17.2132 6.25495 17.4037 6.1824 17.5824 6.10642C17.608 6.09573 17.6309 6.08427 17.6561 6.0732C17.81 6.006 17.9562 5.93727 18.0956 5.86625C18.1433 5.84182 18.1899 5.81738 18.2357 5.79256C18.3605 5.72575 18.4793 5.6574 18.5915 5.58715C18.6206 5.5692 18.6519 5.55164 18.6797 5.53369C18.8138 5.44702 18.9375 5.35844 19.052 5.26795C19.0806 5.24504 19.1062 5.22213 19.1341 5.19922C19.1837 5.15798 19.236 5.11713 19.2819 5.07551ZM10.5 0.763636C15.6756 0.763636 19.2819 2.27258 19.2819 3.62727C19.2819 4.98196 15.6756 6.49091 10.5 6.49091C5.3245 6.49091 1.71823 4.98196 1.71823 3.62727C1.71823 2.27258 5.3245 0.763636 10.5 0.763636ZM19.2819 17.4502C19.2765 17.467 19.2727 17.4842 19.2696 17.5018C19.0532 18.8225 15.4774 20.2364 10.5 20.2364C5.52266 20.2364 1.94694 18.8225 1.73044 17.5018C1.72739 17.4846 1.72319 17.4678 1.71823 17.4518V14.2391C1.72892 14.2491 1.74228 14.2586 1.75335 14.2685C1.83659 14.3419 1.92135 14.4148 2.01681 14.485C3.45512 15.5728 6.33135 16.4182 10.5 16.4182C14.6512 16.4182 17.5202 15.5797 18.9646 14.4984C19.0799 14.4144 19.1837 14.3277 19.2815 14.2395L19.2819 14.2391V17.4502Z" fill="#FF0000"/>
</g>
<defs>
<clipPath id="clip0_426_155">
<rect width="21" height="21" fill="white"/>
</clipPath>
</defs>
</svg>
