<svg width="32" height="30" viewBox="0 0 32 30" fill="none" xmlns="http://www.w3.org/2000/svg">
<g clip-path="url(#clip0_376_84)">
<path d="M25.5134 2.76514H21.6951V2.73662C21.6951 2.24905 21.2835 1.85242 20.7776 1.85242H18.38V1.8239C18.38 1.08471 17.756 0.483337 16.9889 0.483337H15.0946C14.3275 0.483337 13.7034 1.08471 13.7034 1.8239V1.85242H11.3059C10.8 1.85242 10.3884 2.24905 10.3884 2.73662V2.76514H6.57012C5.28079 2.76514 4.23181 3.77598 4.23181 5.01842V27.3801C4.23181 28.6225 5.28079 29.6333 6.57012 29.6333H25.5134C26.8027 29.6333 27.8517 28.6225 27.8517 27.3801V5.01842C27.8517 3.77598 26.8027 2.76514 25.5134 2.76514ZM21.251 5.44625H25.0398C25.0561 5.44625 25.0694 5.45903 25.0694 5.47478V26.9237C25.0694 26.9394 25.0561 26.9522 25.0398 26.9522H7.0437C7.02736 26.9522 7.0141 26.9394 7.0141 26.9237V5.47478C7.0141 5.45903 7.02736 5.44625 7.0437 5.44625H10.8324C10.8377 5.44625 10.8428 5.44568 10.848 5.44551C11.2744 5.9993 11.9577 6.35897 12.7267 6.35897H19.3568C20.1258 6.35897 20.8091 5.9993 21.2355 5.44551C21.2407 5.44568 21.2458 5.44625 21.251 5.44625ZM14.5914 1.8239C14.5914 1.55653 14.8171 1.33901 15.0946 1.33901H16.9889C17.2664 1.33901 17.4921 1.55653 17.4921 1.8239V1.85242H14.5914V1.8239ZM11.2763 2.73662C11.2763 2.72087 11.2896 2.70809 11.3059 2.70809H20.7776C20.7939 2.70809 20.8072 2.72087 20.8072 2.73662V3.18967C20.8072 3.19081 20.807 3.19189 20.807 3.19298C20.807 3.19406 20.8072 3.1952 20.8072 3.19628V4.1057C20.8072 4.87632 20.1565 5.5033 19.3568 5.5033H12.7267C11.927 5.5033 11.2763 4.87632 11.2763 4.1057V2.73662ZM26.9637 27.3801C26.9637 28.1507 26.3131 28.7777 25.5134 28.7777H6.57012C5.77042 28.7777 5.11978 28.1507 5.11978 27.3801V5.01842C5.11978 4.24779 5.77042 3.62081 6.57012 3.62081H10.3884V4.1057C10.3884 4.27215 10.4078 4.43427 10.4435 4.59058H7.0437C6.53774 4.59058 6.12614 4.98721 6.12614 5.47478V26.9237C6.12614 27.4113 6.53774 27.8079 7.0437 27.8079H25.0398C25.5457 27.8079 25.9573 27.4113 25.9573 26.9237V5.47478C25.9573 4.98721 25.5457 4.59058 25.0398 4.59058H21.64C21.6758 4.43427 21.6951 4.27215 21.6951 4.1057V3.62081H25.5134C26.3131 3.62081 26.9637 4.24779 26.9637 5.01842V27.3801Z" fill="#ECA908"/>
<path d="M9.47083 12.748H13.1411C13.4185 12.748 13.6443 12.5305 13.6443 12.2631V8.72634C13.6443 8.45897 13.4185 8.24146 13.1411 8.24146H9.47083C9.19337 8.24146 8.96765 8.45897 8.96765 8.72634V12.2631C8.96765 12.5305 9.19337 12.748 9.47083 12.748ZM9.85562 9.09713H12.7563V11.8923H9.85562V9.09713Z" fill="#ECA908"/>
<path d="M13.1411 20.1068H9.47083C9.19337 20.1068 8.96765 20.3243 8.96765 20.5917V24.1285C8.96765 24.3959 9.19337 24.6134 9.47083 24.6134H13.1411C13.4185 24.6134 13.6443 24.3959 13.6443 24.1285V20.5917C13.6443 20.3243 13.4185 20.1068 13.1411 20.1068ZM12.7563 23.7577H9.85562V20.9625H12.7563V23.7577Z" fill="#ECA908"/>
<path d="M13.8335 14.2995L13.5143 14.607C13.3541 14.3483 13.0615 14.1741 12.7267 14.1741H9.88521C9.37925 14.1741 8.96765 14.5708 8.96765 15.0583V17.7965C8.96765 18.2841 9.37925 18.6807 9.88521 18.6807H12.7267C13.2327 18.6807 13.6443 18.2841 13.6443 17.7965V17.3401C13.6443 17.1039 13.4455 16.9123 13.2003 16.9123C12.9551 16.9123 12.7563 17.1039 12.7563 17.3401V17.7965C12.7563 17.8122 12.743 17.825 12.7267 17.825H9.88521C9.86888 17.825 9.85562 17.8122 9.85562 17.7965V15.0583C9.85562 15.0426 9.86888 15.0298 9.88521 15.0298H12.7267C12.743 15.0298 12.7563 15.0426 12.7563 15.0583V15.3375L11.7795 16.2788L11.1463 15.6685C10.9729 15.5015 10.6918 15.5015 10.5185 15.6685C10.3451 15.8356 10.3451 16.1065 10.5185 16.2736L11.4656 17.1863C11.5523 17.2699 11.6659 17.3116 11.7795 17.3116C11.8931 17.3116 12.0068 17.2699 12.0935 17.1863L13.5141 15.8173L13.5143 15.8171L14.4614 14.9045C14.6348 14.7374 14.6348 14.4665 14.4614 14.2995C14.288 14.1324 14.0069 14.1324 13.8335 14.2995Z" fill="#ECA908"/>
<path d="M15.0946 9.55349H16.5154C16.7606 9.55349 16.9593 9.36193 16.9593 9.12565C16.9593 8.88937 16.7606 8.69781 16.5154 8.69781H15.0946C14.8494 8.69781 14.6506 8.88937 14.6506 9.12565C14.6506 9.36193 14.8494 9.55349 15.0946 9.55349Z" fill="#ECA908"/>
<path d="M14.6506 10.9511C14.6506 11.1874 14.8494 11.3789 15.0946 11.3789H22.1983C22.4435 11.3789 22.6423 11.1874 22.6423 10.9511C22.6423 10.7148 22.4435 10.5233 22.1983 10.5233H15.0946C14.8494 10.5233 14.6506 10.7148 14.6506 10.9511Z" fill="#ECA908"/>
<path d="M15.0946 15.9425H19.8304C20.0756 15.9425 20.2744 15.751 20.2744 15.5147C20.2744 15.2784 20.0756 15.0869 19.8304 15.0869H15.0946C14.8494 15.0869 14.6506 15.2784 14.6506 15.5147C14.6506 15.751 14.8494 15.9425 15.0946 15.9425Z" fill="#ECA908"/>
<path d="M22.1983 16.9123H15.0946C14.8494 16.9123 14.6506 17.1038 14.6506 17.3401C14.6506 17.5764 14.8494 17.768 15.0946 17.768H22.1983C22.4435 17.768 22.6423 17.5764 22.6423 17.3401C22.6423 17.1038 22.4435 16.9123 22.1983 16.9123Z" fill="#ECA908"/>
<path d="M15.0946 21.8752H16.9889C17.2341 21.8752 17.4329 21.6836 17.4329 21.4474C17.4329 21.2111 17.2341 21.0195 16.9889 21.0195H15.0946C14.8494 21.0195 14.6506 21.2111 14.6506 21.4474C14.6506 21.6836 14.8494 21.8752 15.0946 21.8752Z" fill="#ECA908"/>
<path d="M22.1983 22.845H15.0946C14.8494 22.845 14.6506 23.0365 14.6506 23.2728C14.6506 23.5091 14.8494 23.7007 15.0946 23.7007H22.1983C22.4435 23.7007 22.6423 23.5091 22.6423 23.2728C22.6423 23.0365 22.4435 22.845 22.1983 22.845Z" fill="#ECA908"/>
</g>
<defs>
<clipPath id="clip0_376_84">
<rect width="30.25" height="29.15" fill="white" transform="translate(0.916748 0.483337)"/>
</clipPath>
</defs>
</svg>
