<svg width="23" height="23" viewBox="0 0 23 23" fill="none" xmlns="http://www.w3.org/2000/svg">
<path d="M9.89999 18.7076C9.89999 19.1003 10.056 19.4769 10.3337 19.7546C10.6113 20.0323 10.9879 20.1882 11.3806 20.1882C11.7733 20.1882 12.1499 20.0323 12.4276 19.7546C12.7052 19.4769 12.8612 19.1003 12.8612 18.7076C12.8612 18.5132 12.8229 18.3207 12.7485 18.141C12.6741 17.9614 12.5651 17.7982 12.4276 17.6607C12.2901 17.5232 12.1269 17.4141 11.9472 17.3397C11.7676 17.2653 11.5751 17.227 11.3806 17.227C11.1862 17.227 10.9936 17.2653 10.814 17.3397C10.6344 17.4141 10.4711 17.5232 10.3337 17.6607C10.1962 17.7982 10.0871 17.9614 10.0127 18.141C9.93829 18.3207 9.89999 18.5132 9.89999 18.7076ZM13.9897 13.1186C16.0726 11.9715 17.1306 10.3083 17.1306 8.1765C17.1306 4.51519 14.2427 2.875 11.3806 2.875C8.5933 2.875 5.63062 4.90044 5.63062 8.65519C5.63062 9.03644 5.78207 9.40207 6.05165 9.67165C6.32123 9.94124 6.68687 10.0927 7.06811 10.0927C7.44936 10.0927 7.815 9.94124 8.08458 9.67165C8.35416 9.40207 8.50561 9.03644 8.50561 8.65519C8.50561 6.6585 9.9963 5.75 11.3806 5.75C12.4544 5.75 14.2556 6.06481 14.2556 8.1765C14.2556 8.92544 14.0587 9.79944 12.6039 10.6016C11.6149 11.1435 9.94311 12.5508 9.94311 14.375C9.94311 14.7562 10.0946 15.1219 10.3641 15.3915C10.6337 15.661 10.9994 15.8125 11.3806 15.8125C11.7619 15.8125 12.1275 15.661 12.3971 15.3915C12.6667 15.1219 12.8181 14.7562 12.8181 14.375C12.8181 14.1076 13.3859 13.4507 13.9897 13.1186Z" fill="#4AD991"/>
</svg>
